<?xml version="1.0" encoding="UTF-8"?>
<svg id="Layer_2" data-name="Layer 2" xmlns="http://www.w3.org/2000/svg" viewBox="0 0 936.33 261.52">
  <defs>
    <style>
      .cls-1, .cls-2, .cls-3 {
        fill: #2f01d1;
      }

      .cls-4, .cls-5, .cls-6 {
        fill: #ed9ff6;
      }

      .cls-2 {
        font-size: 138.72px;
      }

      .cls-2, .cls-3 {
        font-family: Take-Coffee, 'Take Coffee';
      }

      .cls-5 {
        font-size: 72px;
      }

      .cls-5, .cls-6 {
        font-family: Starborn, Starborn;
      }

      .cls-6 {
        font-size: 69.27px;
      }

      .cls-3 {
        font-size: 149.75px;
      }
    </style>
  </defs>
  <g id="Layer_1-2" data-name="Layer 1">
    <text class="cls-2" transform="translate(201.33 169.5)"><tspan x="0" y="0">Illuspace</tspan></text>
    <text class="cls-5" transform="translate(866.3 177.46)"><tspan x="0" y="0">a</tspan></text>
    <path class="cls-1" d="M174.98,75.49c-.95,0-1.93,.03-2.96,.07-7.37-15.6-14.57-24.09-21.59-25.48-1.32-.22-2.57-.32-3.76-.32-5.37,.03-9.88,2.6-13.51,7.71-4.43,7.99-8.25,13.86-11.43,17.64-3,0-10.9-.16-23.7-.51-8.61,2.16-12.9,6.29-12.87,12.39v3.91s1.51,4.57,1.51,4.57c10.51,9.45,15.78,14.84,15.83,16.18l-7.04,24.15,.03,5.19c1.17,5.43,4.77,8.67,10.81,9.73l5.73-.03c1.06,0,2-.21,2.82-.62l22.79-13.06,.72-2.28c-1.23-1.13-2.96-2.65-5.38-4.71l-2.08-1.78-2.38-6.94v-4.03c0-4.06,1.57-13.86,16.07-17.22l1.26-.29,1.3,.04c4.6,.13,7.86,.22,10.16,.28,.98-1.42,2.19-3.27,3.64-5.7l.29-.48,.34-.45c5.1-6.7,12.31-9.58,20.67-8.25l.29,.05c6.73,1.27,11.82,6.24,15.65,11.76,1.73-2.3,2.59-4.51,2.58-6.61,.57-1.49,.85-2.89,.84-4.2-.03-7.22-8.91-10.79-26.63-10.71Z"/>
    <text class="cls-6" transform="translate(137.78 161.01) scale(1.17 1)"><tspan x="0" y="0">a</tspan></text>
    <path class="cls-4" d="M601.91,58.3c-1.84,0-3.77,.04-5.77,.13-14.24-35.26-28.21-54.48-41.9-57.67-2.56-.51-5-.76-7.32-.76-10.49,0-19.29,5.75-26.42,17.25-8.72,17.97-16.21,31.19-22.45,39.67-5.84,0-21.25-.46-46.22-1.39-14.47,4.12-22.72,11.57-24.73,22.34,3.44-.22,6.91,.19,10.29,1.23,5.61,1.72,10.39,5.17,13.95,10.05,2.78-3.08,5.93-5.8,9.41-8.12,4.43-2.92,9.11-5.16,14-6.73,9.12-2.92,18.27-3.24,27.47-.87,4.54,1.18,8.73,3.06,12.45,5.59,1.6,1.09,3.1,2.31,4.48,3.64,.78-.75,1.61-1.46,2.47-2.13,4.65-3.59,10.51-5.49,16.95-5.49,4.47,0,8.87,.84,13.08,2.51,.83,.33,1.73,.51,2.75,.55,5.43,.13,10.97,.96,16.46,2.47,5.86,1.63,11.29,4.08,16.15,7.3,5.34,3.54,9.76,8.06,13.11,13.44,1.47,2.36,2.65,4.86,3.55,7.51,3.97-4.61,8.32-8.71,13.01-12.28,10.41-7.9,22.84-13.25,37-15.91-1.45-14.89-18.71-22.33-51.77-22.33Zm34.34,130.5c-2.01,.61-4.04,1.06-6.08,1.34-2.48,.35-5.03,.52-7.61,.52-1.68,0-3.39-.08-5.1-.22-7.94-.65-15.26-4.05-21.11-9.82-5.49-5.41-9.1-12.07-10.73-19.78l-.06-.32c-4.89,3.9-10.29,7.38-16.07,10.35-1.68,.86-3.35,1.72-5,2.56,.11,1.84,.17,3.69,.17,5.53,0,10.79-4.35,17.23-8.01,20.74-.51,.49-1.02,.95-1.56,1.38,25.22,19.48,42.15,29.22,50.78,29.22h5.64c13.45,0,21.86-8.81,25.22-26.44v-10.32c0-1.16-.16-2.74-.48-4.74Zm-126.19-4.72c-.02-.11-.05-.21-.07-.32-4.05,2.84-8.58,4.95-13.49,6.28-5.2,1.41-10.65,2.12-16.2,2.12-3.38,0-7.03-.43-11.15-1.3-4.33-.92-8.49-2.39-12.36-4.36-2.71-1.38-5.2-3.01-7.44-4.89l-3.05,11.93v11.71c2.24,12.25,9.25,19.6,21.01,22.03h11.17c2.08,0,3.92-.46,5.52-1.38l37.12-24.34c-5.62-4.07-9.44-10.11-11.06-17.48Z"/>
    <text class="cls-2" transform="translate(201.61 169.91)"><tspan x="0" y="0">Illuspace</tspan></text>
    <text class="cls-3" transform="translate(96.71 236.11) rotate(-49.45) scale(1.41 1)"><tspan x="0" y="0">&lt;</tspan></text>
  </g>
</svg>